<mxfile host="app.diagrams.net" modified="2023-11-17T19:39:25.666Z" agent="Mozilla/5.0 (Windows NT 10.0; Win64; x64) AppleWebKit/537.36 (KHTML, like Gecko) Chrome/119.0.0.0 Safari/537.36" etag="SJ2nGRbIW0iuEDPOLM5z" version="22.1.3" type="device">
  <diagram id="C5RBs43oDa-KdzZeNtuy" name="Page-1">
    <mxGraphModel dx="2306" dy="1499" grid="1" gridSize="10" guides="1" tooltips="1" connect="1" arrows="1" fold="1" page="1" pageScale="1" pageWidth="827" pageHeight="1169" math="0" shadow="0">
      <root>
        <mxCell id="WIyWlLk6GJQsqaUBKTNV-0" />
        <mxCell id="WIyWlLk6GJQsqaUBKTNV-1" parent="WIyWlLk6GJQsqaUBKTNV-0" />
        <mxCell id="ZArUKvTGSTp6H-v3MGU4-95" style="edgeStyle=orthogonalEdgeStyle;rounded=0;orthogonalLoop=1;jettySize=auto;html=1;endArrow=diamondThin;endFill=0;endSize=16;" edge="1" parent="WIyWlLk6GJQsqaUBKTNV-1" source="n1rpH-FLsGrh_rx_bgV1-5" target="ZArUKvTGSTp6H-v3MGU4-67">
          <mxGeometry relative="1" as="geometry" />
        </mxCell>
        <mxCell id="n1rpH-FLsGrh_rx_bgV1-5" value="Cliente" style="swimlane;fontStyle=1;align=center;verticalAlign=top;childLayout=stackLayout;horizontal=1;startSize=26;horizontalStack=0;resizeParent=1;resizeParentMax=0;resizeLast=0;collapsible=1;marginBottom=0;whiteSpace=wrap;html=1;" parent="WIyWlLk6GJQsqaUBKTNV-1" vertex="1">
          <mxGeometry x="-170" y="236" width="160" height="216" as="geometry" />
        </mxCell>
        <mxCell id="n1rpH-FLsGrh_rx_bgV1-6" value="- DNI : int" style="text;strokeColor=none;fillColor=none;align=left;verticalAlign=top;spacingLeft=4;spacingRight=4;overflow=hidden;rotatable=0;points=[[0,0.5],[1,0.5]];portConstraint=eastwest;whiteSpace=wrap;html=1;" parent="n1rpH-FLsGrh_rx_bgV1-5" vertex="1">
          <mxGeometry y="26" width="160" height="26" as="geometry" />
        </mxCell>
        <mxCell id="ZArUKvTGSTp6H-v3MGU4-33" value="- nombre : string" style="text;strokeColor=none;fillColor=none;align=left;verticalAlign=top;spacingLeft=4;spacingRight=4;overflow=hidden;rotatable=0;points=[[0,0.5],[1,0.5]];portConstraint=eastwest;whiteSpace=wrap;html=1;" vertex="1" parent="n1rpH-FLsGrh_rx_bgV1-5">
          <mxGeometry y="52" width="160" height="26" as="geometry" />
        </mxCell>
        <mxCell id="ZArUKvTGSTp6H-v3MGU4-32" value="- apellido : string" style="text;strokeColor=none;fillColor=none;align=left;verticalAlign=top;spacingLeft=4;spacingRight=4;overflow=hidden;rotatable=0;points=[[0,0.5],[1,0.5]];portConstraint=eastwest;whiteSpace=wrap;html=1;" vertex="1" parent="n1rpH-FLsGrh_rx_bgV1-5">
          <mxGeometry y="78" width="160" height="26" as="geometry" />
        </mxCell>
        <mxCell id="ZArUKvTGSTp6H-v3MGU4-34" value="- nacimiento : DateTime" style="text;strokeColor=none;fillColor=none;align=left;verticalAlign=top;spacingLeft=4;spacingRight=4;overflow=hidden;rotatable=0;points=[[0,0.5],[1,0.5]];portConstraint=eastwest;whiteSpace=wrap;html=1;" vertex="1" parent="n1rpH-FLsGrh_rx_bgV1-5">
          <mxGeometry y="104" width="160" height="26" as="geometry" />
        </mxCell>
        <mxCell id="ZArUKvTGSTp6H-v3MGU4-128" value="- pasaporte: int" style="text;strokeColor=none;fillColor=none;align=left;verticalAlign=top;spacingLeft=4;spacingRight=4;overflow=hidden;rotatable=0;points=[[0,0.5],[1,0.5]];portConstraint=eastwest;whiteSpace=wrap;html=1;" vertex="1" parent="n1rpH-FLsGrh_rx_bgV1-5">
          <mxGeometry y="130" width="160" height="26" as="geometry" />
        </mxCell>
        <mxCell id="n1rpH-FLsGrh_rx_bgV1-7" value="" style="line;strokeWidth=1;fillColor=none;align=left;verticalAlign=middle;spacingTop=-1;spacingLeft=3;spacingRight=3;rotatable=0;labelPosition=right;points=[];portConstraint=eastwest;strokeColor=inherit;" parent="n1rpH-FLsGrh_rx_bgV1-5" vertex="1">
          <mxGeometry y="156" width="160" height="8" as="geometry" />
        </mxCell>
        <mxCell id="ZArUKvTGSTp6H-v3MGU4-129" value="+ ListarInformacion ()" style="text;strokeColor=none;fillColor=none;align=left;verticalAlign=top;spacingLeft=4;spacingRight=4;overflow=hidden;rotatable=0;points=[[0,0.5],[1,0.5]];portConstraint=eastwest;whiteSpace=wrap;html=1;" vertex="1" parent="n1rpH-FLsGrh_rx_bgV1-5">
          <mxGeometry y="164" width="160" height="26" as="geometry" />
        </mxCell>
        <mxCell id="ZArUKvTGSTp6H-v3MGU4-124" value="+ ConfirmarReserva ()" style="text;strokeColor=none;fillColor=none;align=left;verticalAlign=top;spacingLeft=4;spacingRight=4;overflow=hidden;rotatable=0;points=[[0,0.5],[1,0.5]];portConstraint=eastwest;whiteSpace=wrap;html=1;" vertex="1" parent="n1rpH-FLsGrh_rx_bgV1-5">
          <mxGeometry y="190" width="160" height="26" as="geometry" />
        </mxCell>
        <mxCell id="ZArUKvTGSTp6H-v3MGU4-97" style="edgeStyle=orthogonalEdgeStyle;rounded=0;orthogonalLoop=1;jettySize=auto;html=1;endArrow=diamondThin;endFill=0;endSize=14;" edge="1" parent="WIyWlLk6GJQsqaUBKTNV-1" source="ZArUKvTGSTp6H-v3MGU4-0" target="ZArUKvTGSTp6H-v3MGU4-42">
          <mxGeometry relative="1" as="geometry">
            <Array as="points">
              <mxPoint x="334" y="615" />
              <mxPoint x="334" y="314" />
            </Array>
          </mxGeometry>
        </mxCell>
        <mxCell id="ZArUKvTGSTp6H-v3MGU4-0" value="Trayecto" style="swimlane;fontStyle=1;align=center;verticalAlign=top;childLayout=stackLayout;horizontal=1;startSize=26;horizontalStack=0;resizeParent=1;resizeParentMax=0;resizeLast=0;collapsible=1;marginBottom=0;whiteSpace=wrap;html=1;" vertex="1" parent="WIyWlLk6GJQsqaUBKTNV-1">
          <mxGeometry x="44" y="520" width="160" height="216" as="geometry" />
        </mxCell>
        <mxCell id="ZArUKvTGSTp6H-v3MGU4-1" value="- codigo : int" style="text;strokeColor=none;fillColor=none;align=left;verticalAlign=top;spacingLeft=4;spacingRight=4;overflow=hidden;rotatable=0;points=[[0,0.5],[1,0.5]];portConstraint=eastwest;whiteSpace=wrap;html=1;" vertex="1" parent="ZArUKvTGSTp6H-v3MGU4-0">
          <mxGeometry y="26" width="160" height="26" as="geometry" />
        </mxCell>
        <mxCell id="ZArUKvTGSTp6H-v3MGU4-4" value="- ciudadOrigen : string" style="text;strokeColor=none;fillColor=none;align=left;verticalAlign=top;spacingLeft=4;spacingRight=4;overflow=hidden;rotatable=0;points=[[0,0.5],[1,0.5]];portConstraint=eastwest;whiteSpace=wrap;html=1;" vertex="1" parent="ZArUKvTGSTp6H-v3MGU4-0">
          <mxGeometry y="52" width="160" height="26" as="geometry" />
        </mxCell>
        <mxCell id="ZArUKvTGSTp6H-v3MGU4-5" value="- ciudadDestino : string" style="text;strokeColor=none;fillColor=none;align=left;verticalAlign=top;spacingLeft=4;spacingRight=4;overflow=hidden;rotatable=0;points=[[0,0.5],[1,0.5]];portConstraint=eastwest;whiteSpace=wrap;html=1;" vertex="1" parent="ZArUKvTGSTp6H-v3MGU4-0">
          <mxGeometry y="78" width="160" height="26" as="geometry" />
        </mxCell>
        <mxCell id="ZArUKvTGSTp6H-v3MGU4-6" value="- cantidadDeDias : int" style="text;strokeColor=none;fillColor=none;align=left;verticalAlign=top;spacingLeft=4;spacingRight=4;overflow=hidden;rotatable=0;points=[[0,0.5],[1,0.5]];portConstraint=eastwest;whiteSpace=wrap;html=1;" vertex="1" parent="ZArUKvTGSTp6H-v3MGU4-0">
          <mxGeometry y="104" width="160" height="26" as="geometry" />
        </mxCell>
        <mxCell id="ZArUKvTGSTp6H-v3MGU4-7" value="- costo : float" style="text;strokeColor=none;fillColor=none;align=left;verticalAlign=top;spacingLeft=4;spacingRight=4;overflow=hidden;rotatable=0;points=[[0,0.5],[1,0.5]];portConstraint=eastwest;whiteSpace=wrap;html=1;" vertex="1" parent="ZArUKvTGSTp6H-v3MGU4-0">
          <mxGeometry y="130" width="160" height="26" as="geometry" />
        </mxCell>
        <mxCell id="ZArUKvTGSTp6H-v3MGU4-2" value="" style="line;strokeWidth=1;fillColor=none;align=left;verticalAlign=middle;spacingTop=-1;spacingLeft=3;spacingRight=3;rotatable=0;labelPosition=right;points=[];portConstraint=eastwest;strokeColor=inherit;" vertex="1" parent="ZArUKvTGSTp6H-v3MGU4-0">
          <mxGeometry y="156" width="160" height="8" as="geometry" />
        </mxCell>
        <mxCell id="ZArUKvTGSTp6H-v3MGU4-122" value="+ ListarInformacion ()" style="text;strokeColor=none;fillColor=none;align=left;verticalAlign=top;spacingLeft=4;spacingRight=4;overflow=hidden;rotatable=0;points=[[0,0.5],[1,0.5]];portConstraint=eastwest;whiteSpace=wrap;html=1;" vertex="1" parent="ZArUKvTGSTp6H-v3MGU4-0">
          <mxGeometry y="164" width="160" height="26" as="geometry" />
        </mxCell>
        <mxCell id="ZArUKvTGSTp6H-v3MGU4-123" value="+ GetCosto () : float" style="text;strokeColor=none;fillColor=none;align=left;verticalAlign=top;spacingLeft=4;spacingRight=4;overflow=hidden;rotatable=0;points=[[0,0.5],[1,0.5]];portConstraint=eastwest;whiteSpace=wrap;html=1;" vertex="1" parent="ZArUKvTGSTp6H-v3MGU4-0">
          <mxGeometry y="190" width="160" height="26" as="geometry" />
        </mxCell>
        <mxCell id="ZArUKvTGSTp6H-v3MGU4-98" style="edgeStyle=orthogonalEdgeStyle;rounded=0;orthogonalLoop=1;jettySize=auto;html=1;entryX=0;entryY=0.5;entryDx=0;entryDy=0;endArrow=diamondThin;endFill=0;endSize=14;" edge="1" parent="WIyWlLk6GJQsqaUBKTNV-1" source="ZArUKvTGSTp6H-v3MGU4-8" target="ZArUKvTGSTp6H-v3MGU4-48">
          <mxGeometry relative="1" as="geometry" />
        </mxCell>
        <mxCell id="ZArUKvTGSTp6H-v3MGU4-8" value="Vuelo" style="swimlane;fontStyle=1;align=center;verticalAlign=top;childLayout=stackLayout;horizontal=1;startSize=26;horizontalStack=0;resizeParent=1;resizeParentMax=0;resizeLast=0;collapsible=1;marginBottom=0;whiteSpace=wrap;html=1;" vertex="1" parent="WIyWlLk6GJQsqaUBKTNV-1">
          <mxGeometry x="390" y="330" width="160" height="294" as="geometry" />
        </mxCell>
        <mxCell id="ZArUKvTGSTp6H-v3MGU4-9" value="- codigo : int" style="text;strokeColor=none;fillColor=none;align=left;verticalAlign=top;spacingLeft=4;spacingRight=4;overflow=hidden;rotatable=0;points=[[0,0.5],[1,0.5]];portConstraint=eastwest;whiteSpace=wrap;html=1;" vertex="1" parent="ZArUKvTGSTp6H-v3MGU4-8">
          <mxGeometry y="26" width="160" height="26" as="geometry" />
        </mxCell>
        <mxCell id="ZArUKvTGSTp6H-v3MGU4-12" value="- linea : string" style="text;strokeColor=none;fillColor=none;align=left;verticalAlign=top;spacingLeft=4;spacingRight=4;overflow=hidden;rotatable=0;points=[[0,0.5],[1,0.5]];portConstraint=eastwest;whiteSpace=wrap;html=1;" vertex="1" parent="ZArUKvTGSTp6H-v3MGU4-8">
          <mxGeometry y="52" width="160" height="26" as="geometry" />
        </mxCell>
        <mxCell id="ZArUKvTGSTp6H-v3MGU4-13" value="- operador : Persona" style="text;strokeColor=none;fillColor=none;align=left;verticalAlign=top;spacingLeft=4;spacingRight=4;overflow=hidden;rotatable=0;points=[[0,0.5],[1,0.5]];portConstraint=eastwest;whiteSpace=wrap;html=1;" vertex="1" parent="ZArUKvTGSTp6H-v3MGU4-8">
          <mxGeometry y="78" width="160" height="26" as="geometry" />
        </mxCell>
        <mxCell id="ZArUKvTGSTp6H-v3MGU4-14" value="- fechaSalida : DateTime" style="text;strokeColor=none;fillColor=none;align=left;verticalAlign=top;spacingLeft=4;spacingRight=4;overflow=hidden;rotatable=0;points=[[0,0.5],[1,0.5]];portConstraint=eastwest;whiteSpace=wrap;html=1;" vertex="1" parent="ZArUKvTGSTp6H-v3MGU4-8">
          <mxGeometry y="104" width="160" height="26" as="geometry" />
        </mxCell>
        <mxCell id="ZArUKvTGSTp6H-v3MGU4-15" value="- fechaLlegada : DateTime" style="text;strokeColor=none;fillColor=none;align=left;verticalAlign=top;spacingLeft=4;spacingRight=4;overflow=hidden;rotatable=0;points=[[0,0.5],[1,0.5]];portConstraint=eastwest;whiteSpace=wrap;html=1;" vertex="1" parent="ZArUKvTGSTp6H-v3MGU4-8">
          <mxGeometry y="130" width="160" height="26" as="geometry" />
        </mxCell>
        <mxCell id="ZArUKvTGSTp6H-v3MGU4-16" value="- tarifaMenor : float" style="text;strokeColor=none;fillColor=none;align=left;verticalAlign=top;spacingLeft=4;spacingRight=4;overflow=hidden;rotatable=0;points=[[0,0.5],[1,0.5]];portConstraint=eastwest;whiteSpace=wrap;html=1;" vertex="1" parent="ZArUKvTGSTp6H-v3MGU4-8">
          <mxGeometry y="156" width="160" height="26" as="geometry" />
        </mxCell>
        <mxCell id="ZArUKvTGSTp6H-v3MGU4-17" value="- tarifaMayor : float" style="text;strokeColor=none;fillColor=none;align=left;verticalAlign=top;spacingLeft=4;spacingRight=4;overflow=hidden;rotatable=0;points=[[0,0.5],[1,0.5]];portConstraint=eastwest;whiteSpace=wrap;html=1;" vertex="1" parent="ZArUKvTGSTp6H-v3MGU4-8">
          <mxGeometry y="182" width="160" height="26" as="geometry" />
        </mxCell>
        <mxCell id="ZArUKvTGSTp6H-v3MGU4-10" value="" style="line;strokeWidth=1;fillColor=none;align=left;verticalAlign=middle;spacingTop=-1;spacingLeft=3;spacingRight=3;rotatable=0;labelPosition=right;points=[];portConstraint=eastwest;strokeColor=inherit;" vertex="1" parent="ZArUKvTGSTp6H-v3MGU4-8">
          <mxGeometry y="208" width="160" height="8" as="geometry" />
        </mxCell>
        <mxCell id="ZArUKvTGSTp6H-v3MGU4-119" value="+ ListarInformacion ()" style="text;strokeColor=none;fillColor=none;align=left;verticalAlign=top;spacingLeft=4;spacingRight=4;overflow=hidden;rotatable=0;points=[[0,0.5],[1,0.5]];portConstraint=eastwest;whiteSpace=wrap;html=1;" vertex="1" parent="ZArUKvTGSTp6H-v3MGU4-8">
          <mxGeometry y="216" width="160" height="26" as="geometry" />
        </mxCell>
        <mxCell id="ZArUKvTGSTp6H-v3MGU4-120" value="+ GetTarifaMayor() : float" style="text;strokeColor=none;fillColor=none;align=left;verticalAlign=top;spacingLeft=4;spacingRight=4;overflow=hidden;rotatable=0;points=[[0,0.5],[1,0.5]];portConstraint=eastwest;whiteSpace=wrap;html=1;" vertex="1" parent="ZArUKvTGSTp6H-v3MGU4-8">
          <mxGeometry y="242" width="160" height="26" as="geometry" />
        </mxCell>
        <mxCell id="ZArUKvTGSTp6H-v3MGU4-121" value="+ GetTarifaMenor() : float" style="text;strokeColor=none;fillColor=none;align=left;verticalAlign=top;spacingLeft=4;spacingRight=4;overflow=hidden;rotatable=0;points=[[0,0.5],[1,0.5]];portConstraint=eastwest;whiteSpace=wrap;html=1;" vertex="1" parent="ZArUKvTGSTp6H-v3MGU4-8">
          <mxGeometry y="268" width="160" height="26" as="geometry" />
        </mxCell>
        <mxCell id="ZArUKvTGSTp6H-v3MGU4-99" style="edgeStyle=orthogonalEdgeStyle;rounded=0;orthogonalLoop=1;jettySize=auto;html=1;endArrow=diamondThin;endFill=0;endSize=14;" edge="1" parent="WIyWlLk6GJQsqaUBKTNV-1" source="ZArUKvTGSTp6H-v3MGU4-18" target="ZArUKvTGSTp6H-v3MGU4-48">
          <mxGeometry relative="1" as="geometry" />
        </mxCell>
        <mxCell id="ZArUKvTGSTp6H-v3MGU4-18" value="Hotel" style="swimlane;fontStyle=1;align=center;verticalAlign=top;childLayout=stackLayout;horizontal=1;startSize=26;horizontalStack=0;resizeParent=1;resizeParentMax=0;resizeLast=0;collapsible=1;marginBottom=0;whiteSpace=wrap;html=1;" vertex="1" parent="WIyWlLk6GJQsqaUBKTNV-1">
          <mxGeometry x="870" y="338" width="160" height="268" as="geometry" />
        </mxCell>
        <mxCell id="ZArUKvTGSTp6H-v3MGU4-19" value="- codigo : int" style="text;strokeColor=none;fillColor=none;align=left;verticalAlign=top;spacingLeft=4;spacingRight=4;overflow=hidden;rotatable=0;points=[[0,0.5],[1,0.5]];portConstraint=eastwest;whiteSpace=wrap;html=1;" vertex="1" parent="ZArUKvTGSTp6H-v3MGU4-18">
          <mxGeometry y="26" width="160" height="26" as="geometry" />
        </mxCell>
        <mxCell id="ZArUKvTGSTp6H-v3MGU4-22" value="- nombre : string" style="text;strokeColor=none;fillColor=none;align=left;verticalAlign=top;spacingLeft=4;spacingRight=4;overflow=hidden;rotatable=0;points=[[0,0.5],[1,0.5]];portConstraint=eastwest;whiteSpace=wrap;html=1;" vertex="1" parent="ZArUKvTGSTp6H-v3MGU4-18">
          <mxGeometry y="52" width="160" height="26" as="geometry" />
        </mxCell>
        <mxCell id="ZArUKvTGSTp6H-v3MGU4-23" value="- ubicacion : string" style="text;strokeColor=none;fillColor=none;align=left;verticalAlign=top;spacingLeft=4;spacingRight=4;overflow=hidden;rotatable=0;points=[[0,0.5],[1,0.5]];portConstraint=eastwest;whiteSpace=wrap;html=1;" vertex="1" parent="ZArUKvTGSTp6H-v3MGU4-18">
          <mxGeometry y="78" width="160" height="26" as="geometry" />
        </mxCell>
        <mxCell id="ZArUKvTGSTp6H-v3MGU4-24" value="- checkIn: DateTime" style="text;strokeColor=none;fillColor=none;align=left;verticalAlign=top;spacingLeft=4;spacingRight=4;overflow=hidden;rotatable=0;points=[[0,0.5],[1,0.5]];portConstraint=eastwest;whiteSpace=wrap;html=1;" vertex="1" parent="ZArUKvTGSTp6H-v3MGU4-18">
          <mxGeometry y="104" width="160" height="26" as="geometry" />
        </mxCell>
        <mxCell id="ZArUKvTGSTp6H-v3MGU4-25" value="- checkOut: DateTime" style="text;strokeColor=none;fillColor=none;align=left;verticalAlign=top;spacingLeft=4;spacingRight=4;overflow=hidden;rotatable=0;points=[[0,0.5],[1,0.5]];portConstraint=eastwest;whiteSpace=wrap;html=1;" vertex="1" parent="ZArUKvTGSTp6H-v3MGU4-18">
          <mxGeometry y="130" width="160" height="26" as="geometry" />
        </mxCell>
        <mxCell id="ZArUKvTGSTp6H-v3MGU4-26" value="- cantidadNoches: int" style="text;strokeColor=none;fillColor=none;align=left;verticalAlign=top;spacingLeft=4;spacingRight=4;overflow=hidden;rotatable=0;points=[[0,0.5],[1,0.5]];portConstraint=eastwest;whiteSpace=wrap;html=1;" vertex="1" parent="ZArUKvTGSTp6H-v3MGU4-18">
          <mxGeometry y="156" width="160" height="26" as="geometry" />
        </mxCell>
        <mxCell id="ZArUKvTGSTp6H-v3MGU4-27" value="- precioNoche : float" style="text;strokeColor=none;fillColor=none;align=left;verticalAlign=top;spacingLeft=4;spacingRight=4;overflow=hidden;rotatable=0;points=[[0,0.5],[1,0.5]];portConstraint=eastwest;whiteSpace=wrap;html=1;" vertex="1" parent="ZArUKvTGSTp6H-v3MGU4-18">
          <mxGeometry y="182" width="160" height="26" as="geometry" />
        </mxCell>
        <mxCell id="ZArUKvTGSTp6H-v3MGU4-20" value="" style="line;strokeWidth=1;fillColor=none;align=left;verticalAlign=middle;spacingTop=-1;spacingLeft=3;spacingRight=3;rotatable=0;labelPosition=right;points=[];portConstraint=eastwest;strokeColor=inherit;" vertex="1" parent="ZArUKvTGSTp6H-v3MGU4-18">
          <mxGeometry y="208" width="160" height="8" as="geometry" />
        </mxCell>
        <mxCell id="ZArUKvTGSTp6H-v3MGU4-21" value="+ ListarInformacion ()" style="text;strokeColor=none;fillColor=none;align=left;verticalAlign=top;spacingLeft=4;spacingRight=4;overflow=hidden;rotatable=0;points=[[0,0.5],[1,0.5]];portConstraint=eastwest;whiteSpace=wrap;html=1;" vertex="1" parent="ZArUKvTGSTp6H-v3MGU4-18">
          <mxGeometry y="216" width="160" height="26" as="geometry" />
        </mxCell>
        <mxCell id="ZArUKvTGSTp6H-v3MGU4-118" value="+ GetPrecio :float" style="text;strokeColor=none;fillColor=none;align=left;verticalAlign=top;spacingLeft=4;spacingRight=4;overflow=hidden;rotatable=0;points=[[0,0.5],[1,0.5]];portConstraint=eastwest;whiteSpace=wrap;html=1;" vertex="1" parent="ZArUKvTGSTp6H-v3MGU4-18">
          <mxGeometry y="242" width="160" height="26" as="geometry" />
        </mxCell>
        <mxCell id="ZArUKvTGSTp6H-v3MGU4-96" style="edgeStyle=orthogonalEdgeStyle;rounded=0;orthogonalLoop=1;jettySize=auto;html=1;endArrow=diamondThin;endFill=0;endSize=13;" edge="1" parent="WIyWlLk6GJQsqaUBKTNV-1" source="ZArUKvTGSTp6H-v3MGU4-28" target="ZArUKvTGSTp6H-v3MGU4-65">
          <mxGeometry relative="1" as="geometry" />
        </mxCell>
        <mxCell id="ZArUKvTGSTp6H-v3MGU4-28" value="&lt;i&gt;Paquete&lt;/i&gt;" style="swimlane;fontStyle=1;align=center;verticalAlign=top;childLayout=stackLayout;horizontal=1;startSize=26;horizontalStack=0;resizeParent=1;resizeParentMax=0;resizeLast=0;collapsible=1;marginBottom=0;whiteSpace=wrap;html=1;" vertex="1" parent="WIyWlLk6GJQsqaUBKTNV-1">
          <mxGeometry x="340" y="115" width="160" height="60" as="geometry" />
        </mxCell>
        <mxCell id="ZArUKvTGSTp6H-v3MGU4-30" value="" style="line;strokeWidth=1;fillColor=none;align=left;verticalAlign=middle;spacingTop=-1;spacingLeft=3;spacingRight=3;rotatable=0;labelPosition=right;points=[];portConstraint=eastwest;strokeColor=inherit;" vertex="1" parent="ZArUKvTGSTp6H-v3MGU4-28">
          <mxGeometry y="26" width="160" height="8" as="geometry" />
        </mxCell>
        <mxCell id="ZArUKvTGSTp6H-v3MGU4-29" value="&lt;i&gt;+ montoAPagar () : float&lt;/i&gt;" style="text;strokeColor=none;fillColor=none;align=left;verticalAlign=top;spacingLeft=4;spacingRight=4;overflow=hidden;rotatable=0;points=[[0,0.5],[1,0.5]];portConstraint=eastwest;whiteSpace=wrap;html=1;" vertex="1" parent="ZArUKvTGSTp6H-v3MGU4-28">
          <mxGeometry y="34" width="160" height="26" as="geometry" />
        </mxCell>
        <mxCell id="ZArUKvTGSTp6H-v3MGU4-57" style="edgeStyle=orthogonalEdgeStyle;rounded=0;orthogonalLoop=1;jettySize=auto;html=1;endArrow=block;endFill=0;endSize=14;exitX=0.5;exitY=0;exitDx=0;exitDy=0;" edge="1" parent="WIyWlLk6GJQsqaUBKTNV-1" source="ZArUKvTGSTp6H-v3MGU4-36" target="ZArUKvTGSTp6H-v3MGU4-28">
          <mxGeometry relative="1" as="geometry">
            <Array as="points">
              <mxPoint x="124" y="200" />
              <mxPoint x="420" y="200" />
            </Array>
          </mxGeometry>
        </mxCell>
        <mxCell id="ZArUKvTGSTp6H-v3MGU4-36" value="Propio" style="swimlane;fontStyle=1;align=center;verticalAlign=top;childLayout=stackLayout;horizontal=1;startSize=26;horizontalStack=0;resizeParent=1;resizeParentMax=0;resizeLast=0;collapsible=1;marginBottom=0;whiteSpace=wrap;html=1;" vertex="1" parent="WIyWlLk6GJQsqaUBKTNV-1">
          <mxGeometry x="44" y="223" width="160" height="190" as="geometry" />
        </mxCell>
        <mxCell id="ZArUKvTGSTp6H-v3MGU4-37" value="- destino : string" style="text;strokeColor=none;fillColor=none;align=left;verticalAlign=top;spacingLeft=4;spacingRight=4;overflow=hidden;rotatable=0;points=[[0,0.5],[1,0.5]];portConstraint=eastwest;whiteSpace=wrap;html=1;" vertex="1" parent="ZArUKvTGSTp6H-v3MGU4-36">
          <mxGeometry y="26" width="160" height="26" as="geometry" />
        </mxCell>
        <mxCell id="ZArUKvTGSTp6H-v3MGU4-41" value="- cantDias : int" style="text;strokeColor=none;fillColor=none;align=left;verticalAlign=top;spacingLeft=4;spacingRight=4;overflow=hidden;rotatable=0;points=[[0,0.5],[1,0.5]];portConstraint=eastwest;whiteSpace=wrap;html=1;" vertex="1" parent="ZArUKvTGSTp6H-v3MGU4-36">
          <mxGeometry y="52" width="160" height="26" as="geometry" />
        </mxCell>
        <mxCell id="ZArUKvTGSTp6H-v3MGU4-42" value="- salida : DateTime" style="text;strokeColor=none;fillColor=none;align=left;verticalAlign=top;spacingLeft=4;spacingRight=4;overflow=hidden;rotatable=0;points=[[0,0.5],[1,0.5]];portConstraint=eastwest;whiteSpace=wrap;html=1;" vertex="1" parent="ZArUKvTGSTp6H-v3MGU4-36">
          <mxGeometry y="78" width="160" height="26" as="geometry" />
        </mxCell>
        <mxCell id="ZArUKvTGSTp6H-v3MGU4-43" value="- CupoMax : int" style="text;strokeColor=none;fillColor=none;align=left;verticalAlign=top;spacingLeft=4;spacingRight=4;overflow=hidden;rotatable=0;points=[[0,0.5],[1,0.5]];portConstraint=eastwest;whiteSpace=wrap;html=1;" vertex="1" parent="ZArUKvTGSTp6H-v3MGU4-36">
          <mxGeometry y="104" width="160" height="26" as="geometry" />
        </mxCell>
        <mxCell id="ZArUKvTGSTp6H-v3MGU4-44" value="- descuento : float" style="text;strokeColor=none;fillColor=none;align=left;verticalAlign=top;spacingLeft=4;spacingRight=4;overflow=hidden;rotatable=0;points=[[0,0.5],[1,0.5]];portConstraint=eastwest;whiteSpace=wrap;html=1;" vertex="1" parent="ZArUKvTGSTp6H-v3MGU4-36">
          <mxGeometry y="130" width="160" height="26" as="geometry" />
        </mxCell>
        <mxCell id="ZArUKvTGSTp6H-v3MGU4-38" value="" style="line;strokeWidth=1;fillColor=none;align=left;verticalAlign=middle;spacingTop=-1;spacingLeft=3;spacingRight=3;rotatable=0;labelPosition=right;points=[];portConstraint=eastwest;strokeColor=inherit;" vertex="1" parent="ZArUKvTGSTp6H-v3MGU4-36">
          <mxGeometry y="156" width="160" height="8" as="geometry" />
        </mxCell>
        <mxCell id="ZArUKvTGSTp6H-v3MGU4-46" value="+ montoAPagar () : float" style="text;strokeColor=none;fillColor=none;align=left;verticalAlign=top;spacingLeft=4;spacingRight=4;overflow=hidden;rotatable=0;points=[[0,0.5],[1,0.5]];portConstraint=eastwest;whiteSpace=wrap;html=1;" vertex="1" parent="ZArUKvTGSTp6H-v3MGU4-36">
          <mxGeometry y="164" width="160" height="26" as="geometry" />
        </mxCell>
        <mxCell id="ZArUKvTGSTp6H-v3MGU4-58" style="edgeStyle=orthogonalEdgeStyle;rounded=0;orthogonalLoop=1;jettySize=auto;html=1;endArrow=block;endFill=0;endSize=14;" edge="1" parent="WIyWlLk6GJQsqaUBKTNV-1" source="ZArUKvTGSTp6H-v3MGU4-47" target="ZArUKvTGSTp6H-v3MGU4-28">
          <mxGeometry relative="1" as="geometry">
            <Array as="points">
              <mxPoint x="700" y="200" />
              <mxPoint x="420" y="200" />
            </Array>
          </mxGeometry>
        </mxCell>
        <mxCell id="ZArUKvTGSTp6H-v3MGU4-47" value="Especial" style="swimlane;fontStyle=1;align=center;verticalAlign=top;childLayout=stackLayout;horizontal=1;startSize=26;horizontalStack=0;resizeParent=1;resizeParentMax=0;resizeLast=0;collapsible=1;marginBottom=0;whiteSpace=wrap;html=1;" vertex="1" parent="WIyWlLk6GJQsqaUBKTNV-1">
          <mxGeometry x="620" y="223" width="160" height="86" as="geometry" />
        </mxCell>
        <mxCell id="ZArUKvTGSTp6H-v3MGU4-48" value="." style="text;strokeColor=none;fillColor=none;align=left;verticalAlign=top;spacingLeft=4;spacingRight=4;overflow=hidden;rotatable=0;points=[[0,0.5],[1,0.5]];portConstraint=eastwest;whiteSpace=wrap;html=1;" vertex="1" parent="ZArUKvTGSTp6H-v3MGU4-47">
          <mxGeometry y="26" width="160" height="26" as="geometry" />
        </mxCell>
        <mxCell id="ZArUKvTGSTp6H-v3MGU4-54" value="" style="line;strokeWidth=1;fillColor=none;align=left;verticalAlign=middle;spacingTop=-1;spacingLeft=3;spacingRight=3;rotatable=0;labelPosition=right;points=[];portConstraint=eastwest;strokeColor=inherit;" vertex="1" parent="ZArUKvTGSTp6H-v3MGU4-47">
          <mxGeometry y="52" width="160" height="8" as="geometry" />
        </mxCell>
        <mxCell id="ZArUKvTGSTp6H-v3MGU4-55" value="+ montoAPagar () : float" style="text;strokeColor=none;fillColor=none;align=left;verticalAlign=top;spacingLeft=4;spacingRight=4;overflow=hidden;rotatable=0;points=[[0,0.5],[1,0.5]];portConstraint=eastwest;whiteSpace=wrap;html=1;" vertex="1" parent="ZArUKvTGSTp6H-v3MGU4-47">
          <mxGeometry y="60" width="160" height="26" as="geometry" />
        </mxCell>
        <mxCell id="ZArUKvTGSTp6H-v3MGU4-84" style="edgeStyle=orthogonalEdgeStyle;rounded=0;orthogonalLoop=1;jettySize=auto;html=1;endArrow=diamondThin;endFill=1;endSize=12;startSize=21;" edge="1" parent="WIyWlLk6GJQsqaUBKTNV-1" source="ZArUKvTGSTp6H-v3MGU4-59" target="ZArUKvTGSTp6H-v3MGU4-69">
          <mxGeometry relative="1" as="geometry" />
        </mxCell>
        <mxCell id="ZArUKvTGSTp6H-v3MGU4-59" value="Reserva" style="swimlane;fontStyle=1;align=center;verticalAlign=top;childLayout=stackLayout;horizontal=1;startSize=26;horizontalStack=0;resizeParent=1;resizeParentMax=0;resizeLast=0;collapsible=1;marginBottom=0;whiteSpace=wrap;html=1;" vertex="1" parent="WIyWlLk6GJQsqaUBKTNV-1">
          <mxGeometry x="-414" y="80" width="160" height="242" as="geometry" />
        </mxCell>
        <mxCell id="ZArUKvTGSTp6H-v3MGU4-60" value="- codigo : int" style="text;strokeColor=none;fillColor=none;align=left;verticalAlign=top;spacingLeft=4;spacingRight=4;overflow=hidden;rotatable=0;points=[[0,0.5],[1,0.5]];portConstraint=eastwest;whiteSpace=wrap;html=1;" vertex="1" parent="ZArUKvTGSTp6H-v3MGU4-59">
          <mxGeometry y="26" width="160" height="26" as="geometry" />
        </mxCell>
        <mxCell id="ZArUKvTGSTp6H-v3MGU4-65" value="- fechaReserva : DateTime" style="text;strokeColor=none;fillColor=none;align=left;verticalAlign=top;spacingLeft=4;spacingRight=4;overflow=hidden;rotatable=0;points=[[0,0.5],[1,0.5]];portConstraint=eastwest;whiteSpace=wrap;html=1;" vertex="1" parent="ZArUKvTGSTp6H-v3MGU4-59">
          <mxGeometry y="52" width="160" height="26" as="geometry" />
        </mxCell>
        <mxCell id="ZArUKvTGSTp6H-v3MGU4-67" value="- fechaCaduca :DateTime" style="text;strokeColor=none;fillColor=none;align=left;verticalAlign=top;spacingLeft=4;spacingRight=4;overflow=hidden;rotatable=0;points=[[0,0.5],[1,0.5]];portConstraint=eastwest;whiteSpace=wrap;html=1;" vertex="1" parent="ZArUKvTGSTp6H-v3MGU4-59">
          <mxGeometry y="78" width="160" height="26" as="geometry" />
        </mxCell>
        <mxCell id="ZArUKvTGSTp6H-v3MGU4-130" value="- confirmacion : bool" style="text;strokeColor=none;fillColor=none;align=left;verticalAlign=top;spacingLeft=4;spacingRight=4;overflow=hidden;rotatable=0;points=[[0,0.5],[1,0.5]];portConstraint=eastwest;whiteSpace=wrap;html=1;" vertex="1" parent="ZArUKvTGSTp6H-v3MGU4-59">
          <mxGeometry y="104" width="160" height="26" as="geometry" />
        </mxCell>
        <mxCell id="ZArUKvTGSTp6H-v3MGU4-35" value="- montoPagado : float" style="text;strokeColor=none;fillColor=none;align=left;verticalAlign=top;spacingLeft=4;spacingRight=4;overflow=hidden;rotatable=0;points=[[0,0.5],[1,0.5]];portConstraint=eastwest;whiteSpace=wrap;html=1;" vertex="1" parent="ZArUKvTGSTp6H-v3MGU4-59">
          <mxGeometry y="130" width="160" height="26" as="geometry" />
        </mxCell>
        <mxCell id="ZArUKvTGSTp6H-v3MGU4-61" value="" style="line;strokeWidth=1;fillColor=none;align=left;verticalAlign=middle;spacingTop=-1;spacingLeft=3;spacingRight=3;rotatable=0;labelPosition=right;points=[];portConstraint=eastwest;strokeColor=inherit;" vertex="1" parent="ZArUKvTGSTp6H-v3MGU4-59">
          <mxGeometry y="156" width="160" height="8" as="geometry" />
        </mxCell>
        <mxCell id="ZArUKvTGSTp6H-v3MGU4-127" value="+ montoSeña()&amp;nbsp; float" style="text;strokeColor=none;fillColor=none;align=left;verticalAlign=top;spacingLeft=4;spacingRight=4;overflow=hidden;rotatable=0;points=[[0,0.5],[1,0.5]];portConstraint=eastwest;whiteSpace=wrap;html=1;" vertex="1" parent="ZArUKvTGSTp6H-v3MGU4-59">
          <mxGeometry y="164" width="160" height="26" as="geometry" />
        </mxCell>
        <mxCell id="ZArUKvTGSTp6H-v3MGU4-131" value="+ montoTotal()&amp;nbsp; float" style="text;strokeColor=none;fillColor=none;align=left;verticalAlign=top;spacingLeft=4;spacingRight=4;overflow=hidden;rotatable=0;points=[[0,0.5],[1,0.5]];portConstraint=eastwest;whiteSpace=wrap;html=1;" vertex="1" parent="ZArUKvTGSTp6H-v3MGU4-59">
          <mxGeometry y="190" width="160" height="26" as="geometry" />
        </mxCell>
        <mxCell id="ZArUKvTGSTp6H-v3MGU4-132" value="+ PagarReserva (monto)&amp;nbsp;" style="text;strokeColor=none;fillColor=none;align=left;verticalAlign=top;spacingLeft=4;spacingRight=4;overflow=hidden;rotatable=0;points=[[0,0.5],[1,0.5]];portConstraint=eastwest;whiteSpace=wrap;html=1;" vertex="1" parent="ZArUKvTGSTp6H-v3MGU4-59">
          <mxGeometry y="216" width="160" height="26" as="geometry" />
        </mxCell>
        <mxCell id="ZArUKvTGSTp6H-v3MGU4-69" value="Sistema" style="swimlane;fontStyle=1;align=center;verticalAlign=top;childLayout=stackLayout;horizontal=1;startSize=26;horizontalStack=0;resizeParent=1;resizeParentMax=0;resizeLast=0;collapsible=1;marginBottom=0;whiteSpace=wrap;html=1;" vertex="1" parent="WIyWlLk6GJQsqaUBKTNV-1">
          <mxGeometry x="-940" y="120" width="313" height="164" as="geometry" />
        </mxCell>
        <mxCell id="ZArUKvTGSTp6H-v3MGU4-71" value="" style="line;strokeWidth=1;fillColor=none;align=left;verticalAlign=middle;spacingTop=-1;spacingLeft=3;spacingRight=3;rotatable=0;labelPosition=right;points=[];portConstraint=eastwest;strokeColor=inherit;" vertex="1" parent="ZArUKvTGSTp6H-v3MGU4-69">
          <mxGeometry y="26" width="313" height="8" as="geometry" />
        </mxCell>
        <mxCell id="ZArUKvTGSTp6H-v3MGU4-72" value="+ RealizarReserva (Agente, Clientes, Paquete)" style="text;strokeColor=none;fillColor=none;align=left;verticalAlign=top;spacingLeft=4;spacingRight=4;overflow=hidden;rotatable=0;points=[[0,0.5],[1,0.5]];portConstraint=eastwest;whiteSpace=wrap;html=1;" vertex="1" parent="ZArUKvTGSTp6H-v3MGU4-69">
          <mxGeometry y="34" width="313" height="26" as="geometry" />
        </mxCell>
        <mxCell id="ZArUKvTGSTp6H-v3MGU4-74" value="+ PagarReserva (monto)" style="text;strokeColor=none;fillColor=none;align=left;verticalAlign=top;spacingLeft=4;spacingRight=4;overflow=hidden;rotatable=0;points=[[0,0.5],[1,0.5]];portConstraint=eastwest;whiteSpace=wrap;html=1;" vertex="1" parent="ZArUKvTGSTp6H-v3MGU4-69">
          <mxGeometry y="60" width="313" height="26" as="geometry" />
        </mxCell>
        <mxCell id="ZArUKvTGSTp6H-v3MGU4-134" value="+ CancelarReserva()" style="text;strokeColor=none;fillColor=none;align=left;verticalAlign=top;spacingLeft=4;spacingRight=4;overflow=hidden;rotatable=0;points=[[0,0.5],[1,0.5]];portConstraint=eastwest;whiteSpace=wrap;html=1;" vertex="1" parent="ZArUKvTGSTp6H-v3MGU4-69">
          <mxGeometry y="86" width="313" height="26" as="geometry" />
        </mxCell>
        <mxCell id="ZArUKvTGSTp6H-v3MGU4-75" value="+ BonificaciónAgente (int codigoAgente) : float" style="text;strokeColor=none;fillColor=none;align=left;verticalAlign=top;spacingLeft=4;spacingRight=4;overflow=hidden;rotatable=0;points=[[0,0.5],[1,0.5]];portConstraint=eastwest;whiteSpace=wrap;html=1;" vertex="1" parent="ZArUKvTGSTp6H-v3MGU4-69">
          <mxGeometry y="112" width="313" height="26" as="geometry" />
        </mxCell>
        <mxCell id="ZArUKvTGSTp6H-v3MGU4-136" value="+ Recaudacion () : float" style="text;strokeColor=none;fillColor=none;align=left;verticalAlign=top;spacingLeft=4;spacingRight=4;overflow=hidden;rotatable=0;points=[[0,0.5],[1,0.5]];portConstraint=eastwest;whiteSpace=wrap;html=1;" vertex="1" parent="ZArUKvTGSTp6H-v3MGU4-69">
          <mxGeometry y="138" width="313" height="26" as="geometry" />
        </mxCell>
        <mxCell id="ZArUKvTGSTp6H-v3MGU4-94" style="edgeStyle=orthogonalEdgeStyle;rounded=0;orthogonalLoop=1;jettySize=auto;html=1;entryX=1;entryY=0.5;entryDx=0;entryDy=0;endArrow=diamondThin;endFill=0;endSize=15;" edge="1" parent="WIyWlLk6GJQsqaUBKTNV-1" source="ZArUKvTGSTp6H-v3MGU4-76" target="ZArUKvTGSTp6H-v3MGU4-60">
          <mxGeometry relative="1" as="geometry" />
        </mxCell>
        <mxCell id="ZArUKvTGSTp6H-v3MGU4-76" value="Agente" style="swimlane;fontStyle=1;align=center;verticalAlign=top;childLayout=stackLayout;horizontal=1;startSize=26;horizontalStack=0;resizeParent=1;resizeParentMax=0;resizeLast=0;collapsible=1;marginBottom=0;whiteSpace=wrap;html=1;" vertex="1" parent="WIyWlLk6GJQsqaUBKTNV-1">
          <mxGeometry x="-169" y="-132" width="160" height="190" as="geometry" />
        </mxCell>
        <mxCell id="ZArUKvTGSTp6H-v3MGU4-135" value="- codigo : int" style="text;strokeColor=none;fillColor=none;align=left;verticalAlign=top;spacingLeft=4;spacingRight=4;overflow=hidden;rotatable=0;points=[[0,0.5],[1,0.5]];portConstraint=eastwest;whiteSpace=wrap;html=1;" vertex="1" parent="ZArUKvTGSTp6H-v3MGU4-76">
          <mxGeometry y="26" width="160" height="26" as="geometry" />
        </mxCell>
        <mxCell id="ZArUKvTGSTp6H-v3MGU4-77" value="- DNI : int" style="text;strokeColor=none;fillColor=none;align=left;verticalAlign=top;spacingLeft=4;spacingRight=4;overflow=hidden;rotatable=0;points=[[0,0.5],[1,0.5]];portConstraint=eastwest;whiteSpace=wrap;html=1;" vertex="1" parent="ZArUKvTGSTp6H-v3MGU4-76">
          <mxGeometry y="52" width="160" height="26" as="geometry" />
        </mxCell>
        <mxCell id="ZArUKvTGSTp6H-v3MGU4-78" value="- nombre : string" style="text;strokeColor=none;fillColor=none;align=left;verticalAlign=top;spacingLeft=4;spacingRight=4;overflow=hidden;rotatable=0;points=[[0,0.5],[1,0.5]];portConstraint=eastwest;whiteSpace=wrap;html=1;" vertex="1" parent="ZArUKvTGSTp6H-v3MGU4-76">
          <mxGeometry y="78" width="160" height="26" as="geometry" />
        </mxCell>
        <mxCell id="ZArUKvTGSTp6H-v3MGU4-79" value="- apellido : string" style="text;strokeColor=none;fillColor=none;align=left;verticalAlign=top;spacingLeft=4;spacingRight=4;overflow=hidden;rotatable=0;points=[[0,0.5],[1,0.5]];portConstraint=eastwest;whiteSpace=wrap;html=1;" vertex="1" parent="ZArUKvTGSTp6H-v3MGU4-76">
          <mxGeometry y="104" width="160" height="26" as="geometry" />
        </mxCell>
        <mxCell id="ZArUKvTGSTp6H-v3MGU4-80" value="- nacimiento : DateTime" style="text;strokeColor=none;fillColor=none;align=left;verticalAlign=top;spacingLeft=4;spacingRight=4;overflow=hidden;rotatable=0;points=[[0,0.5],[1,0.5]];portConstraint=eastwest;whiteSpace=wrap;html=1;" vertex="1" parent="ZArUKvTGSTp6H-v3MGU4-76">
          <mxGeometry y="130" width="160" height="26" as="geometry" />
        </mxCell>
        <mxCell id="ZArUKvTGSTp6H-v3MGU4-82" value="" style="line;strokeWidth=1;fillColor=none;align=left;verticalAlign=middle;spacingTop=-1;spacingLeft=3;spacingRight=3;rotatable=0;labelPosition=right;points=[];portConstraint=eastwest;strokeColor=inherit;" vertex="1" parent="ZArUKvTGSTp6H-v3MGU4-76">
          <mxGeometry y="156" width="160" height="8" as="geometry" />
        </mxCell>
        <mxCell id="ZArUKvTGSTp6H-v3MGU4-125" value="+ ListarInformacion ()" style="text;strokeColor=none;fillColor=none;align=left;verticalAlign=top;spacingLeft=4;spacingRight=4;overflow=hidden;rotatable=0;points=[[0,0.5],[1,0.5]];portConstraint=eastwest;whiteSpace=wrap;html=1;" vertex="1" parent="ZArUKvTGSTp6H-v3MGU4-76">
          <mxGeometry y="164" width="160" height="26" as="geometry" />
        </mxCell>
        <mxCell id="ZArUKvTGSTp6H-v3MGU4-100" value="Clientes" style="text;html=1;align=center;verticalAlign=middle;resizable=0;points=[];autosize=1;strokeColor=none;fillColor=none;" vertex="1" parent="WIyWlLk6GJQsqaUBKTNV-1">
          <mxGeometry x="-200" y="168" width="70" height="30" as="geometry" />
        </mxCell>
        <mxCell id="ZArUKvTGSTp6H-v3MGU4-101" value="1...*" style="text;html=1;align=center;verticalAlign=middle;resizable=0;points=[];autosize=1;strokeColor=none;fillColor=none;" vertex="1" parent="WIyWlLk6GJQsqaUBKTNV-1">
          <mxGeometry x="-130" y="211" width="40" height="30" as="geometry" />
        </mxCell>
        <mxCell id="ZArUKvTGSTp6H-v3MGU4-102" value="*" style="text;html=1;align=center;verticalAlign=middle;resizable=0;points=[];autosize=1;strokeColor=none;fillColor=none;" vertex="1" parent="WIyWlLk6GJQsqaUBKTNV-1">
          <mxGeometry x="-259" y="150" width="30" height="30" as="geometry" />
        </mxCell>
        <mxCell id="ZArUKvTGSTp6H-v3MGU4-103" value="1" style="text;html=1;align=center;verticalAlign=middle;resizable=0;points=[];autosize=1;strokeColor=none;fillColor=none;" vertex="1" parent="WIyWlLk6GJQsqaUBKTNV-1">
          <mxGeometry x="-114" y="52" width="30" height="30" as="geometry" />
        </mxCell>
        <mxCell id="ZArUKvTGSTp6H-v3MGU4-104" value="*" style="text;html=1;align=center;verticalAlign=middle;resizable=0;points=[];autosize=1;strokeColor=none;fillColor=none;" vertex="1" parent="WIyWlLk6GJQsqaUBKTNV-1">
          <mxGeometry x="-260" y="97" width="30" height="30" as="geometry" />
        </mxCell>
        <mxCell id="ZArUKvTGSTp6H-v3MGU4-105" value="Agente" style="text;html=1;align=center;verticalAlign=middle;resizable=0;points=[];autosize=1;strokeColor=none;fillColor=none;" vertex="1" parent="WIyWlLk6GJQsqaUBKTNV-1">
          <mxGeometry x="-179" y="96" width="60" height="30" as="geometry" />
        </mxCell>
        <mxCell id="ZArUKvTGSTp6H-v3MGU4-106" value="Paquete" style="text;html=1;align=center;verticalAlign=middle;resizable=0;points=[];autosize=1;strokeColor=none;fillColor=none;" vertex="1" parent="WIyWlLk6GJQsqaUBKTNV-1">
          <mxGeometry x="-10" y="125" width="70" height="30" as="geometry" />
        </mxCell>
        <mxCell id="ZArUKvTGSTp6H-v3MGU4-107" value="*" style="text;html=1;align=center;verticalAlign=middle;resizable=0;points=[];autosize=1;strokeColor=none;fillColor=none;" vertex="1" parent="WIyWlLk6GJQsqaUBKTNV-1">
          <mxGeometry x="-261" y="123" width="30" height="30" as="geometry" />
        </mxCell>
        <mxCell id="ZArUKvTGSTp6H-v3MGU4-108" value="1" style="text;html=1;align=center;verticalAlign=middle;resizable=0;points=[];autosize=1;strokeColor=none;fillColor=none;" vertex="1" parent="WIyWlLk6GJQsqaUBKTNV-1">
          <mxGeometry x="316" y="123" width="30" height="30" as="geometry" />
        </mxCell>
        <mxCell id="ZArUKvTGSTp6H-v3MGU4-109" value="*" style="text;html=1;align=center;verticalAlign=middle;resizable=0;points=[];autosize=1;strokeColor=none;fillColor=none;" vertex="1" parent="WIyWlLk6GJQsqaUBKTNV-1">
          <mxGeometry x="198" y="291" width="30" height="30" as="geometry" />
        </mxCell>
        <mxCell id="ZArUKvTGSTp6H-v3MGU4-110" value="1...*" style="text;html=1;align=center;verticalAlign=middle;resizable=0;points=[];autosize=1;strokeColor=none;fillColor=none;" vertex="1" parent="WIyWlLk6GJQsqaUBKTNV-1">
          <mxGeometry x="200" y="593" width="40" height="30" as="geometry" />
        </mxCell>
        <mxCell id="ZArUKvTGSTp6H-v3MGU4-111" value="Trayectos" style="text;html=1;align=center;verticalAlign=middle;resizable=0;points=[];autosize=1;strokeColor=none;fillColor=none;" vertex="1" parent="WIyWlLk6GJQsqaUBKTNV-1">
          <mxGeometry x="244" y="292" width="80" height="30" as="geometry" />
        </mxCell>
        <mxCell id="ZArUKvTGSTp6H-v3MGU4-112" value="1...*" style="text;html=1;align=center;verticalAlign=middle;resizable=0;points=[];autosize=1;strokeColor=none;fillColor=none;" vertex="1" parent="WIyWlLk6GJQsqaUBKTNV-1">
          <mxGeometry x="466" y="308" width="40" height="30" as="geometry" />
        </mxCell>
        <mxCell id="ZArUKvTGSTp6H-v3MGU4-113" value="*" style="text;html=1;align=center;verticalAlign=middle;resizable=0;points=[];autosize=1;strokeColor=none;fillColor=none;" vertex="1" parent="WIyWlLk6GJQsqaUBKTNV-1">
          <mxGeometry x="595" y="240" width="30" height="30" as="geometry" />
        </mxCell>
        <mxCell id="ZArUKvTGSTp6H-v3MGU4-114" value="*" style="text;html=1;align=center;verticalAlign=middle;resizable=0;points=[];autosize=1;strokeColor=none;fillColor=none;" vertex="1" parent="WIyWlLk6GJQsqaUBKTNV-1">
          <mxGeometry x="773" y="241" width="30" height="30" as="geometry" />
        </mxCell>
        <mxCell id="ZArUKvTGSTp6H-v3MGU4-115" value="1...*" style="text;html=1;align=center;verticalAlign=middle;resizable=0;points=[];autosize=1;strokeColor=none;fillColor=none;" vertex="1" parent="WIyWlLk6GJQsqaUBKTNV-1">
          <mxGeometry x="912" y="316" width="40" height="30" as="geometry" />
        </mxCell>
        <mxCell id="ZArUKvTGSTp6H-v3MGU4-116" value="Hoteles" style="text;html=1;align=center;verticalAlign=middle;resizable=0;points=[];autosize=1;strokeColor=none;fillColor=none;" vertex="1" parent="WIyWlLk6GJQsqaUBKTNV-1">
          <mxGeometry x="860" y="241" width="60" height="30" as="geometry" />
        </mxCell>
        <mxCell id="ZArUKvTGSTp6H-v3MGU4-117" value="Vuelos" style="text;html=1;align=center;verticalAlign=middle;resizable=0;points=[];autosize=1;strokeColor=none;fillColor=none;" vertex="1" parent="WIyWlLk6GJQsqaUBKTNV-1">
          <mxGeometry x="507" y="240" width="60" height="30" as="geometry" />
        </mxCell>
        <mxCell id="ZArUKvTGSTp6H-v3MGU4-133" value="Reservas" style="text;html=1;align=center;verticalAlign=middle;resizable=0;points=[];autosize=1;strokeColor=none;fillColor=none;" vertex="1" parent="WIyWlLk6GJQsqaUBKTNV-1">
          <mxGeometry x="-560" y="178" width="70" height="30" as="geometry" />
        </mxCell>
      </root>
    </mxGraphModel>
  </diagram>
</mxfile>
